<svg width="24" height="24" viewBox="0 0 24 24" fill="none" xmlns="http://www.w3.org/2000/svg">
<path opacity="0.4" d="M16.3403 1.9998H7.6703C4.2803 1.9998 2.0003 4.3798 2.0003 7.9198V16.0898C2.0003 19.6198 4.2803 21.9998 7.6703 21.9998H16.3403C19.7303 21.9998 22.0003 19.6198 22.0003 16.0898V7.9198C22.0003 4.3798 19.7303 1.9998 16.3403 1.9998Z" fill="black"/>
<path d="M9.67595 8.73341L9.67593 8.73339C9.55094 8.6084 9.38141 8.53818 9.20465 8.53818C9.02789 8.53818 8.85837 8.6084 8.73338 8.73339C8.60839 8.85837 8.53817 9.0279 8.53817 9.20466C8.53817 9.38142 8.60839 9.55094 8.73338 9.67593L8.73341 9.67596L11.0583 12L8.73341 14.324L8.73338 14.3241C8.67149 14.386 8.6224 14.4594 8.58891 14.5403C8.55541 14.6212 8.53817 14.7078 8.53817 14.7953C8.53817 14.8829 8.55541 14.9695 8.58891 15.0504C8.6224 15.1313 8.67149 15.2047 8.73338 15.2666C8.85837 15.3916 9.02789 15.4618 9.20465 15.4618C9.29218 15.4618 9.37884 15.4446 9.4597 15.4111C9.54057 15.3776 9.61404 15.3285 9.67593 15.2666L9.67595 15.2666L12 12.9417L14.324 15.2666L14.3241 15.2666C14.386 15.3285 14.4594 15.3776 14.5403 15.4111C14.6211 15.4446 14.7078 15.4618 14.7953 15.4618C14.8829 15.4618 14.9695 15.4446 15.0504 15.4111C15.1312 15.3776 15.2047 15.3285 15.2666 15.2666C15.3285 15.2047 15.3776 15.1313 15.4111 15.0504C15.4446 14.9695 15.4618 14.8829 15.4618 14.7953C15.4618 14.7078 15.4446 14.6212 15.4111 14.5403C15.3776 14.4594 15.3285 14.386 15.2666 14.3241L15.2666 14.324L12.9417 12L15.2666 9.67596L15.2666 9.67593C15.3285 9.61404 15.3776 9.54057 15.4111 9.45971C15.4446 9.37885 15.4618 9.29218 15.4618 9.20466C15.4618 9.11713 15.4446 9.03047 15.4111 8.94961C15.3776 8.86875 15.3285 8.79527 15.2666 8.73339C15.2047 8.6715 15.1312 8.6224 15.0504 8.58891C14.9695 8.55542 14.8829 8.53818 14.7953 8.53818C14.7078 8.53818 14.6211 8.55542 14.5403 8.58891C14.4594 8.6224 14.386 8.6715 14.3241 8.73339L14.324 8.73341L12 11.0583L9.67595 8.73341Z" fill="black" stroke="black" stroke-width="0.4"/>
</svg>
