<svg width="24" height="24" viewBox="0 0 24 24" fill="none" xmlns="http://www.w3.org/2000/svg">
<path d="M9.67595 8.73341L9.67593 8.73338C9.55094 8.60839 9.38141 8.53817 9.20465 8.53817C9.02789 8.53817 8.85837 8.60839 8.73338 8.73338C8.60839 8.85837 8.53817 9.02789 8.53817 9.20465C8.53817 9.38141 8.60839 9.55094 8.73338 9.67593L8.73341 9.67595L11.0583 12L8.73341 14.324L8.73338 14.3241C8.67149 14.386 8.6224 14.4594 8.58891 14.5403C8.55541 14.6211 8.53817 14.7078 8.53817 14.7953C8.53817 14.8829 8.55541 14.9695 8.58891 15.0504C8.6224 15.1312 8.67149 15.2047 8.73338 15.2666C8.85837 15.3916 9.02789 15.4618 9.20465 15.4618C9.29218 15.4618 9.37884 15.4446 9.4597 15.4111C9.54057 15.3776 9.61404 15.3285 9.67593 15.2666L9.67595 15.2666L12 12.9417L14.324 15.2666L14.3241 15.2666C14.386 15.3285 14.4594 15.3776 14.5403 15.4111C14.6211 15.4446 14.7078 15.4618 14.7953 15.4618C14.8829 15.4618 14.9695 15.4446 15.0504 15.4111C15.1312 15.3776 15.2047 15.3285 15.2666 15.2666C15.3285 15.2047 15.3776 15.1312 15.4111 15.0504C15.4446 14.9695 15.4618 14.8829 15.4618 14.7953C15.4618 14.7078 15.4446 14.6211 15.4111 14.5403C15.3776 14.4594 15.3285 14.386 15.2666 14.3241L15.2666 14.324L12.9417 12L15.2666 9.67595L15.2666 9.67593C15.3285 9.61404 15.3776 9.54057 15.4111 9.4597C15.4446 9.37884 15.4618 9.29218 15.4618 9.20465C15.4618 9.11713 15.4446 9.03046 15.4111 8.9496C15.3776 8.86874 15.3285 8.79527 15.2666 8.73338C15.2047 8.67149 15.1312 8.6224 15.0504 8.58891C14.9695 8.55541 14.8829 8.53817 14.7953 8.53817C14.7078 8.53817 14.6211 8.55541 14.5403 8.58891C14.4594 8.6224 14.386 8.67149 14.3241 8.73338L14.324 8.73341L12 11.0583L9.67595 8.73341Z" fill="black" stroke="black" stroke-width="0.4"/>
<path opacity="0.4" fill-rule="evenodd" clip-rule="evenodd" d="M16.334 2.75H7.665C4.644 2.75 2.75 4.889 2.75 7.916V16.084C2.75 19.111 4.635 21.25 7.665 21.25H16.333C19.364 21.25 21.25 19.111 21.25 16.084V7.916C21.25 4.889 19.364 2.75 16.334 2.75Z" stroke="black" stroke-width="1.5" stroke-linecap="round" stroke-linejoin="round"/>
</svg>
