<svg width="24" height="24" viewBox="0 0 24 24" fill="none" xmlns="http://www.w3.org/2000/svg">
<path d="M8.60236 4.39208L8.60242 4.39179L8.75243 3.7218C8.91275 3.1108 9.40726 2.75 9.93624 2.75H14.0647C14.5951 2.75 15.0895 3.12188 15.2382 3.67555L15.3983 4.38968C15.3984 4.39007 15.3985 4.39047 15.3986 4.39086C15.3986 4.39089 15.3986 4.39092 15.3986 4.39095C15.6047 5.31538 16.4139 5.99389 17.3714 5.99389H20.25V6.33982H3.75V5.99389H6.62957C7.58676 5.99389 8.39539 5.31472 8.60236 4.39208Z" stroke="black" stroke-width="1.5"/>
<path opacity="0.4" d="M18.8945 9.44141C18.8945 9.44141 18.3669 16.1917 18.0608 19.0352C17.9151 20.3933 17.1018 21.1891 15.7696 21.2142C13.2345 21.2613 10.6965 21.2643 8.16236 21.2092C6.88072 21.1821 6.08103 20.3763 5.9382 19.0422C5.63017 16.1737 5.10547 9.44141 5.10547 9.44141" stroke="black" stroke-width="1.5" stroke-linecap="round" stroke-linejoin="round"/>
</svg>
