<svg width="24" height="24" viewBox="0 0 24 24" fill="none" xmlns="http://www.w3.org/2000/svg">
<path opacity="0.4" d="M16.7109 21.2411L16.6876 21.2397H16.6643H7.33488H7.31159L7.28835 21.2411C6.0561 21.3177 4.84583 20.8951 3.92997 20.0703C3.10484 19.1532 2.6823 17.9428 2.75887 16.7118L2.76032 16.6885V16.6652V7.33482V7.31152L2.75887 7.28826C2.68228 6.05688 3.10405 4.84662 3.92886 3.92985C4.84585 3.10485 6.05622 2.68229 7.28835 2.75887L7.31159 2.76032H7.33488H16.6643H16.6877L16.7109 2.75887C17.9411 2.6823 19.1502 3.10391 20.066 3.92848C20.8907 4.84698 21.3144 6.05737 21.2412 7.29036L21.2399 7.31257V7.33482V16.6652V16.6882L21.2413 16.7112C21.3171 17.943 20.8952 19.1534 20.0704 20.0702C19.1534 20.8952 17.943 21.3177 16.7109 21.2411Z" stroke="black" stroke-width="1.5"/>
<path d="M17.0545 10.3976L10.5018 16.9829C10.161 17.3146 9.7131 17.5 9.24574 17.5H6.95762C6.83105 17.5 6.71421 17.4512 6.62658 17.3634C6.53895 17.2756 6.5 17.1585 6.5 17.0317L6.55842 14.7195C6.56816 14.261 6.75315 13.8317 7.07446 13.5098L11.7189 8.8561C11.7967 8.77805 11.9331 8.77805 12.011 8.8561L13.6399 10.4785C13.747 10.5849 13.9028 10.6541 14.0683 10.6541C14.4286 10.6541 14.7109 10.3615 14.7109 10.0102C14.7109 9.83463 14.6428 9.67854 14.5357 9.56146C14.5065 9.52244 12.9554 7.97805 12.9554 7.97805C12.858 7.88049 12.858 7.71463 12.9554 7.61707L13.6078 6.95366C14.2114 6.34878 15.1851 6.34878 15.7888 6.95366L17.0545 8.22195C17.6485 8.81707 17.6485 9.79268 17.0545 10.3976Z" fill="black"/>
</svg>
