<svg width="24" height="24" viewBox="0 0 24 24" fill="none" xmlns="http://www.w3.org/2000/svg">
<path opacity="0.4" d="M12 3.88189H11.9902C7.86341 3.88189 4.14634 6.80588 2.05854 11.7087C1.98049 11.8958 1.98049 12.1124 2.05854 12.2896C2.73171 13.8737 3.58049 15.253 4.5561 16.395L8.16585 12.7523C8.12683 12.516 8.09756 12.2601 8.09756 12.0041C8.09756 9.82832 9.8439 8.06605 12 8.06605C12.2537 8.06605 12.5073 8.09559 12.7415 8.13497L16 4.84572C14.7512 4.21662 13.3951 3.88189 12 3.88189ZM21.9415 11.7087C21.0439 9.60189 19.8439 7.84946 18.4293 6.54991L15.2195 9.78894C15.639 10.419 15.8927 11.1869 15.8927 12.0041C15.8927 14.17 14.1463 15.9323 12 15.9323C11.1902 15.9323 10.4293 15.6753 9.80488 15.253L6.71219 18.3739C8.30244 19.506 10.1073 20.1263 11.9902 20.1263H12C16.1366 20.1263 19.8537 17.1924 21.9415 12.2896C22.0195 12.1124 22.0195 11.8958 21.9415 11.7087Z" fill="black"/>
<path d="M20.2051 3.71413C20.4978 3.99964 20.4978 4.4722 20.2051 4.75771L18.4295 6.54952L15.2197 9.78855L13.8056 11.215L14.1564 10.8621C14.332 11.1968 14.4296 11.5906 14.4296 12.0041C14.4296 13.3529 13.3369 14.4555 12.0003 14.4555C11.5909 14.4555 11.2011 14.3573 10.8696 14.1804L4.81971 20.2844C4.67337 20.4311 4.488 20.5 4.30263 20.5C4.11727 20.5 3.92215 20.4311 3.78556 20.2844C3.54166 20.0383 3.50263 19.6435 3.69776 19.358L3.72702 19.3186L14.1953 8.7558L17.288 5.63491L18.1563 4.75771C18.1758 4.73802 18.1953 4.71833 18.2051 4.69864C18.2246 4.67895 18.2441 4.65926 18.2539 4.63957L19.1709 3.71413C19.4636 3.42862 19.9221 3.42862 20.2051 3.71413Z" fill="black"/>
</svg>
