<svg width="24" height="24" viewBox="0 0 24 24" fill="none" xmlns="http://www.w3.org/2000/svg">
<path opacity="0.4" d="M7.6703 2.7498H16.3403C17.8531 2.7498 19.0644 3.27661 19.8993 4.15041C20.737 5.02724 21.2503 6.31146 21.2503 7.9198V16.0898C21.2503 17.6926 20.7374 18.9743 19.8996 19.8501C19.0646 20.723 17.8531 21.2498 16.3403 21.2498H7.6703C6.15735 21.2498 4.94294 20.7228 4.10537 19.8494C3.26517 18.9733 2.7503 17.6917 2.7503 16.0898V7.9198C2.7503 6.31238 3.26551 5.02825 4.10568 4.15109C4.94316 3.27673 6.15739 2.7498 7.6703 2.7498Z" stroke="black" stroke-width="1.5"/>
<path d="M8.17444 11.736L8.17496 11.7355C8.32244 11.588 8.55886 11.5885 8.70485 11.7345L10.4598 13.4895L10.8134 13.843L11.167 13.4895L15.295 9.36146C15.4417 9.21472 15.6781 9.21472 15.8248 9.36146C15.9716 9.5082 15.9716 9.74561 15.8248 9.89235L11.0789 14.6384C11.0058 14.7114 10.9109 14.7479 10.8134 14.7479C10.716 14.7479 10.621 14.7114 10.548 14.6384L8.17496 12.2654C8.02793 12.1183 8.02868 11.8813 8.17444 11.736Z" stroke="black"/>
</svg>
